<svg version="1.1" xmlns="http://www.w3.org/2000/svg" width="512px" height="512px" transform="rotate(0) scale(1, 1)">
<path d="M0 0 C0.74698179 -0.00265183 1.49396358 -0.00530365 2.26358119 -0.00803584 C4.78067094 -0.0157295 7.29771192 -0.01628804 9.81481266 -0.01688576 C11.63216259 -0.02090035 13.44951163 -0.02533857 15.26685959 -0.03016531 C20.27221919 -0.04213726 25.27756915 -0.04778072 30.28294027 -0.05234647 C35.6771768 -0.05830028 41.07140178 -0.06991075 46.46563053 -0.08063698 C59.4993609 -0.10516713 72.5330951 -0.11978959 85.56684145 -0.13269705 C89.24805315 -0.13640871 92.92926446 -0.14038197 96.61047578 -0.14444971 C119.46869421 -0.16968734 142.32691323 -0.19174121 165.18514252 -0.20417786 C170.48064965 -0.20710757 175.77615677 -0.21006923 181.07166386 -0.21308327 C182.38784354 -0.21382932 183.70402323 -0.21457537 185.06008715 -0.21534403 C206.37770006 -0.22799552 227.69521259 -0.26121535 249.01278996 -0.3028851 C270.89793009 -0.34531362 292.78302751 -0.36887401 314.66820866 -0.37409842 C326.95633484 -0.37751162 339.24433065 -0.38925614 351.53241634 -0.42220116 C361.99859391 -0.45021543 372.46461439 -0.4611949 382.93082654 -0.4500057 C388.26916785 -0.44482253 393.60718024 -0.44768392 398.94547367 -0.47247124 C403.83808051 -0.494999 408.73012283 -0.49419628 413.6227398 -0.47526737 C415.387316 -0.47247231 417.15193077 -0.47803823 418.91644507 -0.4930803 C434.69485853 -0.61930104 446.57050812 2.60746298 458.31311893 13.71904564 C464.95742457 20.75721476 469.75226384 30.39190821 469.77825832 40.12193012 C469.78333287 41.13206195 469.78840741 42.14219377 469.79363573 43.18293566 C469.79438236 44.84471978 469.79438236 44.84471978 469.79514408 46.5400753 C469.79952634 47.71855083 469.80390859 48.89702636 469.80842364 50.11121327 C469.819481 53.38353847 469.82603385 56.6558367 469.83060479 59.92817628 C469.8365672 63.45736808 469.84817562 66.98654233 469.8588953 70.51572227 C469.88340735 79.04069636 469.89804607 87.56567625 469.91095537 96.09067473 C469.91466862 98.49979119 469.91864175 100.90890708 469.92270803 103.31802297 C469.94794933 118.2873081 469.96999639 133.25659417 469.98243618 148.22589588 C469.98536575 151.69260664 469.98832743 155.15931737 469.99134159 158.62602806 C469.99208764 159.4876343 469.99283369 160.34924055 469.99360235 161.23695607 C470.00624579 175.182746 470.03945564 189.12840815 470.08114342 203.0741384 C470.12362048 217.40175587 470.14713799 231.72930804 470.15235674 246.0569883 C470.15576466 254.09740179 470.16744624 262.1376157 470.20045948 270.17796707 C470.22854083 277.02830343 470.23942414 283.87839929 470.22826402 290.72878873 C470.22309758 294.22015371 470.2258309 297.71101572 470.25072956 301.20230675 C470.2734868 304.99898627 470.26509343 308.79441325 470.24924564 312.59110069 C470.26312773 313.67888028 470.27700982 314.76665987 470.29131258 315.88740247 C470.15668681 329.04954555 464.9679346 339.39424005 456.05921268 348.80888939 C448.05664871 356.36362132 438.12901678 360.29272467 427.28248787 360.27402878 C426.53550608 360.2766806 425.78852429 360.27933243 425.01890668 360.28206462 C422.50181692 360.28975827 419.98477595 360.29031682 417.46767521 360.29091454 C415.65032528 360.29492913 413.83297624 360.29936734 412.01562828 360.30419409 C407.01026868 360.31616603 402.00491872 360.3218095 396.9995476 360.32637525 C391.60531107 360.33232905 386.21108609 360.34393953 380.81685734 360.35466576 C367.78312697 360.37919591 354.74939277 360.39381837 341.71564642 360.40672582 C338.03443472 360.41043749 334.35322341 360.41441075 330.67201209 360.41847849 C307.81379366 360.44371612 284.95557464 360.46576999 262.09734535 360.47820663 C256.80183822 360.48113635 251.5063311 360.48409801 246.21082401 360.48711205 C244.23655448 360.48823112 244.23655448 360.48823112 242.22240072 360.4893728 C220.90478781 360.5020243 199.58727528 360.53524413 178.26969791 360.57691388 C156.38455778 360.61934239 134.49946036 360.64290279 112.61427921 360.6481272 C100.32615303 360.6515404 88.03815722 360.66328492 75.75007153 360.69622993 C65.28389396 360.72424421 54.81787348 360.73522368 44.35166133 360.72403447 C39.01332002 360.71885131 33.67530763 360.7217127 28.3370142 360.74650002 C23.44440736 360.76902778 18.55236504 360.76822506 13.65974807 360.74929614 C11.89517187 360.74650109 10.1305571 360.75206701 8.3660428 360.76710908 C-7.41237067 360.89332982 -19.28802025 357.6665658 -31.03063107 346.55498314 C-37.6749367 339.51681402 -42.46977597 329.88212057 -42.49577045 320.15209866 C-42.500845 319.14196683 -42.50591954 318.131835 -42.51114786 317.09109312 C-42.51164561 315.98323704 -42.51214337 314.87538096 -42.51265621 313.73395348 C-42.51703847 312.55547795 -42.52142072 311.37700242 -42.52593577 310.16281551 C-42.53699313 306.89049031 -42.54354598 303.61819208 -42.54811692 300.34585249 C-42.55407933 296.8166607 -42.56568775 293.28748645 -42.57640743 289.7583065 C-42.60091948 281.23333242 -42.61555821 272.70835253 -42.6284675 264.18335405 C-42.63218075 261.77423759 -42.63615388 259.3651217 -42.64022017 256.95600581 C-42.66546146 241.98672068 -42.68750852 227.01743461 -42.69994831 212.0481329 C-42.70287788 208.58142214 -42.70583956 205.11471141 -42.70885372 201.64800072 C-42.70959977 200.78639448 -42.71034582 199.92478823 -42.71111448 199.03707271 C-42.72375792 185.09128278 -42.75696777 171.14562063 -42.79865555 157.19989038 C-42.84113262 142.87227291 -42.86465012 128.54472074 -42.86986887 114.21704048 C-42.87327679 106.17662699 -42.88495837 98.13641307 -42.91797161 90.09606171 C-42.94605296 83.24572535 -42.95693628 76.39562949 -42.94577615 69.54524005 C-42.94060971 66.05387506 -42.94334303 62.56301306 -42.96824169 59.07172203 C-42.99099893 55.27504251 -42.98260556 51.47961553 -42.96675777 47.68292809 C-42.98063986 46.5951485 -42.99452195 45.50736891 -43.00882471 44.3866263 C-42.87419894 31.22448323 -37.68544673 20.87978872 -28.77672482 11.46513939 C-20.77416084 3.91040746 -10.84652891 -0.0186959 0 0 Z M10.64124393 30.13701439 C15.35356141 35.67893754 15.35356141 35.67893754 20.30163002 40.92882824 C20.96537118 41.59641055 21.62911235 42.26399286 22.31296688 42.95180494 C23.37888283 44.01642116 23.37888283 44.01642116 24.46633244 45.10254478 C25.235639 45.87482247 26.00494556 46.64710016 26.79756445 47.4427802 C29.36296298 50.01681551 31.93189111 52.5872978 34.50086308 55.15776634 C36.34602076 57.00755545 38.19098136 58.85754116 40.03575993 60.70770836 C45.03695023 65.72242653 50.04186742 70.73341379 55.0476191 75.7435782 C58.17429003 78.87301816 61.30022558 82.00319197 64.42603207 85.13349533 C73.08605665 93.80570001 81.74701805 102.47696665 90.4114399 111.14477825 C90.96488228 111.6984402 91.51832466 112.25210214 92.08853802 112.82254172 C92.64326234 113.37748433 93.19798667 113.93242693 93.76952082 114.50418597 C94.89351145 115.62862007 96.01750054 116.75305572 97.14148808 117.8774929 C97.69901909 118.43524535 98.25655011 118.9929978 98.830976 119.56765183 C107.87936747 128.61999754 116.92097667 137.67908543 125.95970971 146.74107406 C135.2463901 156.05145471 144.53867313 165.35621255 153.8366279 174.65533417 C159.05449179 179.874115 164.26990893 185.09529014 169.47915173 190.32267761 C174.373264 195.23377776 179.27498167 200.13717128 184.18199444 205.03538132 C185.98375683 206.83637051 187.78294403 208.63994014 189.57938862 210.44623375 C192.02711836 212.90659731 194.48385844 215.35759247 196.94313908 217.80640221 C197.65598043 218.52729997 198.36882178 219.24819772 199.10326439 219.99094087 C204.35534569 225.19067207 207.89007238 227.29766073 215.48108768 227.50029564 C222.50195644 226.31957088 226.91666275 221.28151574 231.6897974 216.4559536 C232.48304956 215.66597028 233.27630171 214.87598697 234.09359181 214.06206477 C236.74930745 211.41363101 239.39416424 208.75461411 242.03919315 206.09551048 C243.94089818 204.19459629 245.84318545 202.29428187 247.74620914 200.39468956 C252.37579458 195.77073196 256.99737581 191.13885316 261.61633115 186.5042796 C266.99265672 181.11041109 272.37703754 175.72461391 277.76181246 170.33918269 C287.36474705 160.73456087 296.96060247 151.12289771 306.55237675 141.50713158 C315.86755968 132.16866548 325.18729956 122.83478033 334.51233768 113.50615501 C335.08725149 112.93101844 335.6621653 112.35588187 336.25450073 111.76331691 C337.41262095 110.60475411 338.57074145 109.44619158 339.72886223 108.28762934 C340.30010183 107.71617018 340.87134143 107.14471101 341.45989132 106.55593491 C342.02965824 105.985952 342.59942516 105.41596909 343.18645775 104.82871398 C352.06536111 95.94611447 360.94043179 87.05968616 369.81497004 78.17272579 C373.0354993 74.94775561 376.25653089 71.72328813 379.47790842 68.49916528 C384.5838911 63.38875909 389.68820688 58.27670034 394.78909282 53.16120647 C397.12100702 50.82266625 399.45396377 48.48518384 401.78853893 46.14929962 C404.31288901 43.62321563 406.83415661 41.09409661 409.35459232 38.56410789 C410.10145263 37.81811407 410.84831293 37.07212025 411.61780536 36.30352056 C412.62069809 35.29486611 412.62069809 35.29486611 413.64385128 34.26583481 C414.22688703 33.68155256 414.80992279 33.09727031 415.41062629 32.49528253 C416.75314822 31.31897618 416.75314822 31.31897618 416.64124393 30.13701439 C282.66124393 30.13701439 148.68124393 30.13701439 10.64124393 30.13701439 Z M-12.35875607 52.13701439 C-12.35875607 136.61701439 -12.35875607 221.09701439 -12.35875607 308.13701439 C-8.01046867 304.4099109 -3.93979157 300.84248385 0.07665348 296.82185936 C0.57674429 296.32262298 1.0768351 295.82338659 1.59208018 295.30902183 C3.24487866 293.65785295 4.89410902 292.00316824 6.54334354 290.34844017 C7.73626415 289.15523713 8.92940572 287.96225497 10.12275028 286.76947594 C13.3455498 283.54696216 16.56526673 280.32138458 19.78442168 277.09523058 C23.15519066 273.71819089 26.52881045 270.34400154 29.90212345 266.9695034 C36.28231517 260.58620931 42.65995446 254.2003714 49.03667122 247.81360614 C56.29952568 240.53955655 63.56523541 233.26836181 70.83118141 225.99740052 C85.77103877 211.04710353 100.70732297 196.09324112 115.64124393 181.13701439 C114.05342569 177.27960897 111.59289796 174.8396922 108.66198063 171.91051292 C107.89480964 171.13972031 107.89480964 171.13972031 107.11214024 170.35335612 C105.39796797 168.63355017 103.67674334 166.92098288 101.95545292 165.20830345 C100.72484645 163.97662405 99.49467306 162.74451182 98.26490116 161.51199913 C94.9245884 158.16683792 91.57805731 154.82796175 88.23025107 151.49030209 C84.73205525 148.00088252 81.23912516 144.50619934 77.74550724 141.01219749 C71.88025412 135.14788093 66.01113994 129.28745129 60.13953495 123.42949486 C53.34129007 116.64699369 46.54830431 109.8592617 39.75829357 103.06851792 C33.23496195 96.54457708 26.70878303 90.02349279 20.18099499 83.50401115 C17.39832001 80.72487586 14.61650424 77.94488463 11.83533382 75.1642437 C8.56522632 71.89513694 5.29259392 68.62857904 2.01794529 65.3640213 C0.81291291 64.16192207 -0.39126207 62.95896268 -1.5945406 61.75510788 C-3.22955384 60.11960774 -4.86758344 58.48719224 -6.5064764 56.85558128 C-7.42474996 55.93898357 -8.34302351 55.02238586 -9.28912354 54.07801247 C-11.00742417 52.02300177 -11.00742417 52.02300177 -12.35875607 52.13701439 Z M435.18817705 55.46099997 C434.45132066 56.20222562 434.45132066 56.20222562 433.69957829 56.95842552 C433.18011271 57.47703667 432.66064714 57.99564782 432.12544018 58.52997446 C430.3710747 60.28268203 428.62032644 62.03895984 426.86951542 63.79521751 C425.61836697 65.04664779 424.36699876 66.29785839 423.11542606 67.54886436 C419.70632582 70.95767647 416.300328 74.36957358 412.89485526 77.78200912 C409.33985221 81.34324307 405.78203666 84.90166486 402.22451115 88.46037865 C395.48288274 95.20512116 388.74380853 101.95240981 382.00563532 108.70060396 C374.33662169 116.3807763 366.66478464 124.05812561 358.99270236 131.73523235 C343.20572647 147.53267442 327.42232154 163.3336803 311.64124393 179.13701439 C313.22906218 182.99441981 315.68958991 185.43433658 318.62050724 188.36351585 C319.38767823 189.13430847 319.38767823 189.13430847 320.17034763 189.92067266 C321.88451989 191.64047861 323.60574453 193.3530459 325.32703495 195.06572533 C326.55764142 196.29740473 327.78781481 197.52951696 329.01758671 198.76202965 C332.35789947 202.10719086 335.70443056 205.44606703 339.0522368 208.78372669 C342.55043262 212.27314625 346.04336271 215.76782944 349.53698063 219.26183128 C355.40223375 225.12614785 361.27134793 230.98657749 367.14295292 236.84453392 C373.9411978 243.62703509 380.73418356 250.41476708 387.5241943 257.20551085 C394.04752592 263.7294517 400.57370484 270.25053599 407.10149288 276.77001762 C409.88416786 279.54915292 412.66598363 282.32914415 415.44715405 285.10978508 C418.71726155 288.37889184 421.98989395 291.64544974 425.26454258 294.91000748 C426.46957496 296.11210671 427.67374994 297.3150661 428.87702847 298.5189209 C430.51204171 300.15442104 432.15007131 301.78683654 433.78896427 303.41844749 C434.70723783 304.3350452 435.62551138 305.25164291 436.5716114 306.19601631 C438.28991204 308.25102701 438.28991204 308.25102701 439.64124393 308.13701439 C439.64124393 223.65701439 439.64124393 139.17701439 439.64124393 52.13701439 C437.64838541 52.13701439 436.51834224 54.13679456 435.18817705 55.46099997 Z M134.18817705 205.45633787 C133.45132066 206.19654034 133.45132066 206.19654034 132.69957829 206.9516964 C132.18011271 207.46960198 131.66064714 207.98750756 131.12544018 208.52110726 C129.37106471 210.27146784 127.62031623 212.02541274 125.86951542 213.77934837 C124.61836027 215.0291497 123.36699222 216.27873793 122.11542606 217.52812767 C118.7062152 220.93276196 115.30019651 224.34057337 111.89485526 227.74907756 C108.33956593 231.30688934 104.78184801 234.8622712 101.22451115 238.41803551 C95.24972199 244.39100263 89.27705071 250.36608145 83.30555058 256.34233665 C76.39042749 263.26290242 69.47170911 270.17985817 62.55111164 277.09494919 C56.62148855 283.0200421 50.69380679 288.94707188 44.76775891 294.87574059 C41.22306273 298.42200007 37.67768427 301.96757031 34.13056087 305.51140213 C30.79676064 308.84232504 27.46539449 312.17566293 24.13593388 315.51092339 C22.9096517 316.73853391 21.68250649 317.965283 20.45446301 319.19113159 C18.78597196 320.85691405 17.12055365 322.52570698 15.45592594 324.19534874 C14.96245763 324.68658633 14.46898931 325.17782392 13.96056741 325.6839475 C11.63948696 327.57980481 11.63948696 327.57980481 10.64124393 330.13701439 C144.62124393 330.13701439 278.60124393 330.13701439 416.64124393 330.13701439 C412.91414045 325.78872699 409.3467134 321.71804989 405.32608891 317.70160484 C404.57723433 316.95146863 404.57723433 316.95146863 403.81325138 316.18617815 C402.16208249 314.53337966 400.50739778 312.8841493 398.85266972 311.23491478 C397.65946667 310.04199418 396.46648452 308.8488526 395.27370548 307.65550804 C392.05119171 304.43270852 388.82561413 301.21299159 385.59946012 297.99383664 C382.22242044 294.62306766 378.84823108 291.24944787 375.47373295 287.87613487 C369.09043885 281.49594316 362.70460095 275.11830387 356.31783569 268.7415871 C349.0437861 261.47873265 341.77259136 254.21302292 334.50163007 246.94707692 C319.55133308 232.00721955 304.59747067 217.07093535 289.64124393 202.13701439 C288.53296226 203.07952643 287.42574968 204.02329569 286.31897831 204.9675808 C285.70228275 205.49300468 285.0855872 206.01842857 284.4502039 206.5597744 C281.90852505 208.77587514 279.52174437 211.12451249 277.14124393 213.51201439 C276.26468143 214.38599876 275.38811893 215.25998314 274.48499393 216.16045189 C272.34251043 218.35752096 270.31960643 220.63564842 268.31311893 222.95732689 C255.27867285 237.96894793 241.17054018 253.8288296 220.64124393 257.13701439 C211.83171058 257.70256468 203.94411175 257.19996258 195.64124393 254.13701439 C194.85749393 253.86631126 194.07374393 253.59560814 193.26624393 253.31670189 C184.19285584 249.52617462 177.51649052 241.93258389 170.64124393 235.13701439 C169.43946132 233.96249399 168.23763962 232.78801357 167.03577518 231.61357689 C161.99662304 226.65660036 157.11403378 221.6477037 152.53577518 216.25810814 C149.87921927 213.283861 147.08068238 210.46133817 144.26624393 207.63701439 C143.72926884 207.09552757 143.19229374 206.55404076 142.63904667 205.99614525 C138.4285271 201.52997529 138.4285271 201.52997529 134.18817705 205.45633787 Z " fill="#007bff" transform="translate(42.35875606536865,75.86298561096191)"/>
</svg>