<?xml version="1.0" encoding="UTF-8"?>
<svg version="1.1" xmlns="http://www.w3.org/2000/svg" width="512" height="512">
<path d="M0 0 C20.88950118 17.19184872 31.37005232 42.3355215 41.46826172 66.76757812 C41.86271484 67.71777832 42.25716797 68.66797852 42.66357422 69.64697266 C43.20304687 70.97510986 43.20304687 70.97510986 43.75341797 72.33007812 C44.23307007 73.50763672 44.23307007 73.50763672 44.72241211 74.70898438 C45.40576172 76.76757812 45.40576172 76.76757812 45.40576172 79.76757812 C46.06576172 79.76757812 46.72576172 79.76757812 47.40576172 79.76757812 C47.52330811 79.06681152 47.64085449 78.36604492 47.76196289 77.64404297 C49.02554529 71.99841238 51.50729695 66.72387662 53.71826172 61.39257812 C53.98386902 60.75118896 54.24947632 60.1097998 54.52313232 59.44897461 C61.85729011 41.82772576 69.6440839 24.1815345 82.40576172 9.76757812 C83.4015625 8.62482422 83.4015625 8.62482422 84.41748047 7.45898438 C96.00739522 -4.97725275 112.46892242 -11.92529622 129.32373047 -12.56835938 C150.21455432 -12.87224993 170.04867151 -9.46864714 185.90576172 5.20507812 C187.77862615 7.02560022 189.59092332 8.88753595 191.40576172 10.76757812 C192.14310547 11.47398438 192.88044922 12.18039063 193.64013672 12.90820312 C206.58362464 26.05236528 211.72650338 44.80561502 211.90576172 62.76757812 C211.75550657 79.0683678 207.48298336 93.15174566 198.40576172 106.76757812 C199.24577225 106.77122375 200.08578278 106.77486938 200.95124817 106.77862549 C208.90948716 106.81666219 216.86732284 106.87369097 224.82527637 106.95148087 C228.91551513 106.99080894 233.00554333 107.0230686 237.09594727 107.03857422 C241.05142907 107.05383849 245.00633143 107.08845376 248.96155357 107.13588715 C250.4623883 107.15060115 251.9633058 107.15861334 253.46421242 107.15946198 C267.8499706 107.17576007 278.45137917 110.14203203 289.40576172 119.76757812 C294.1279438 124.7876344 297.80037394 130.38376068 300.40576172 136.76757812 C300.74583252 137.57477295 301.08590332 138.38196777 301.4362793 139.21362305 C302.75787194 144.05835335 302.73060471 148.64958065 302.74169922 153.65039062 C302.74835602 154.70104706 302.75501282 155.75170349 302.76187134 156.834198 C302.77197655 159.05481218 302.77668902 161.2754566 302.77636719 163.49609375 C302.78072028 166.86054859 302.81700846 170.22366931 302.85498047 173.58789062 C302.94930803 191.17372288 301.14210207 203.27652905 288.68310547 216.61132812 C285.48937343 219.57100415 282.08327574 221.5211351 278.17919922 223.43164062 C277.28378418 223.8720166 276.38836914 224.31239258 275.46582031 224.76611328 C274.78600098 225.09659668 274.10618164 225.42708008 273.40576172 225.76757812 C273.40356188 227.59998157 273.40356188 227.59998157 273.4013176 229.46940327 C273.36558283 258.49547137 273.3092944 287.52144859 273.22784077 316.5474221 C273.21782382 320.12332982 273.2079796 323.69923799 273.19824219 327.27514648 C273.19533013 328.34295376 273.19533013 328.34295376 273.19235924 329.4323329 C273.16137406 340.94501392 273.14436833 352.45767503 273.1325675 363.97038988 C273.12013785 375.79155937 273.09259566 387.61262469 273.05114865 399.4337284 C273.02831062 406.07008261 273.01285121 412.70632209 273.01387787 419.34272194 C273.01462431 425.59310198 272.99667915 431.84315358 272.96459389 438.09344864 C272.95609717 440.383482 272.95434338 442.6735522 272.95995903 444.96359444 C272.9953526 461.61957783 271.83150007 473.76448121 260.40576172 486.76757812 C252.19234276 494.49363889 242.1697606 500.01086179 230.73236561 500.02484703 C230.08377936 500.02835311 229.4351931 500.03185918 228.76695272 500.0354715 C226.59656823 500.04476535 224.42645325 500.03986749 222.25605774 500.03500366 C220.68304307 500.03874095 219.11003026 500.04334279 217.53702039 500.04873431 C213.21639073 500.0609702 208.89583847 500.06070314 204.57519543 500.05834556 C199.91450311 500.05793753 195.25383565 500.06897522 190.59315491 500.07846069 C181.46220654 500.0950754 172.33128399 500.10057047 163.20032177 500.10168545 C155.77730924 500.10263579 148.35430523 500.10674542 140.93129539 500.1130867 C119.8835264 500.13070116 98.83577781 500.13992537 77.7880014 500.13842575 C76.0858765 500.13830588 76.0858765 500.13830588 74.34936523 500.13818359 C73.21322882 500.13810183 72.0770924 500.13802007 70.9065276 500.13793583 C52.49763775 500.13712309 34.08882975 500.15625717 15.67996357 500.18446033 C-3.22426279 500.2131937 -22.12844923 500.22700034 -41.03269798 500.22527277 C-51.64508604 500.22460898 -62.25738831 500.23009645 -72.8697567 500.25162888 C-81.90643007 500.26984671 -90.94297877 500.2741831 -99.97966256 500.26061003 C-104.58863574 500.25408317 -109.1973698 500.25395296 -113.80632019 500.27131653 C-118.03008452 500.28706498 -122.2534205 500.28416563 -126.4771745 500.26674826 C-128.00073587 500.26368224 -129.52432935 500.26729575 -131.04785284 500.27846842 C-145.28255041 500.37589854 -155.76667352 497.28169024 -166.59423828 487.76757812 C-171.31642036 482.74752185 -174.9888505 477.15139557 -177.59423828 470.76757812 C-177.93549429 469.93794493 -178.2767503 469.10831173 -178.6283474 468.25353813 C-179.87507826 463.75400926 -179.88256414 459.61953945 -179.87271118 454.97268677 C-179.87850358 453.9915912 -179.88429599 453.01049564 -179.89026392 451.99966991 C-179.90725598 448.71540409 -179.91013977 445.43127887 -179.91308594 442.14697266 C-179.92238465 439.79143428 -179.93255323 437.43589921 -179.94352722 435.08036804 C-179.97084765 428.68630616 -179.98598276 422.29226634 -179.99895525 415.89816141 C-180.01299412 409.89270599 -180.03612998 403.88728856 -180.0592256 397.88186274 C-180.10466711 385.98896872 -180.14129282 374.09606461 -180.17236328 362.203125 C-180.20255965 350.6520002 -180.23691491 339.10090008 -180.27685547 327.54980469 C-180.27931702 326.83748909 -180.28177857 326.12517348 -180.28431471 325.39127256 C-180.29668952 321.8177031 -180.30914601 318.24413393 -180.32164311 314.67056489 C-180.42517135 285.03627119 -180.51424057 255.40194491 -180.59423828 225.76757812 C-181.28479813 225.42812164 -181.97535797 225.08866516 -182.68684387 224.73892212 C-183.59061264 224.29156708 -184.49438141 223.84421204 -185.42553711 223.38330078 C-186.32234695 222.9407193 -187.2191568 222.49813782 -188.1431427 222.04214478 C-197.8696959 216.98434922 -204.80944595 207.58413483 -208.16137695 197.28051758 C-209.81619118 191.62747557 -210.04528688 186.31977261 -210.02783203 180.45898438 C-210.03307388 179.41161606 -210.03831573 178.36424774 -210.04371643 177.28514099 C-210.05010041 175.0842273 -210.04884704 172.88327933 -210.0402832 170.68237305 C-210.03176946 167.34230985 -210.06059362 164.00395757 -210.09228516 160.6640625 C-210.09389756 158.5123703 -210.0933189 156.36067511 -210.09033203 154.20898438 C-210.10156601 153.22531387 -210.11279999 152.24164337 -210.12437439 151.22816467 C-210.00566883 139.23342296 -205.44734751 129.7048334 -197.59423828 120.76757812 C-189.218414 112.88874865 -179.20262898 107.57646154 -167.57910156 107.44873047 C-166.90522903 107.43868484 -166.23135651 107.42863922 -165.5370636 107.41828918 C-163.3295673 107.38761969 -161.12219135 107.3704679 -158.91455078 107.35351562 C-157.37611874 107.33479085 -155.83769682 107.31521647 -154.29928589 107.29483032 C-150.26507557 107.24364123 -146.23083199 107.20394508 -142.19647217 107.16668701 C-138.07376978 107.12656413 -133.95120412 107.0755097 -129.82861328 107.02539062 C-121.75058191 106.92878805 -113.67248251 106.84433354 -105.59423828 106.76757812 C-106.00869202 106.08635391 -106.42314575 105.4051297 -106.85015869 104.70326233 C-107.3925116 103.80675461 -107.9348645 102.91024689 -108.49365234 101.98657227 C-109.03185608 101.09909805 -109.57005981 100.21162384 -110.12457275 99.29725647 C-111.83539731 96.35248043 -113.15466776 93.39491963 -114.34423828 90.20507812 C-114.73095703 89.19316406 -115.11767578 88.18125 -115.51611328 87.13867188 C-122.11888108 66.49306098 -119.69758646 44.74230166 -110.00805664 25.55273438 C-106.23358603 18.60394681 -101.24965651 13.22685468 -95.59423828 7.76757812 C-94.88783203 7.03023437 -94.18142578 6.29289062 -93.45361328 5.53320312 C-70.24236486 -17.32367509 -25.65762873 -19.83456506 0 0 Z M-74.59423828 30.76757812 C-75.23103516 31.363125 -75.86783203 31.95867188 -76.52392578 32.57226562 C-85.0112953 41.35104698 -87.93052903 52.70979409 -87.97924805 64.58178711 C-87.767464 76.09482556 -83.42890072 85.40841946 -75.59423828 93.76757812 C-74.70091797 94.72277344 -74.70091797 94.72277344 -73.78955078 95.69726562 C-61.33882328 107.73469096 -44.07797243 108.08533066 -27.76611328 107.96289062 C-26.28110954 107.95915017 -24.7961033 107.95630809 -23.31109619 107.95431519 C-19.44452838 107.94675985 -15.57811616 107.92718332 -11.71160889 107.90490723 C-7.74932966 107.88427195 -3.78702475 107.87527606 0.17529297 107.86523438 C7.91885269 107.84392784 15.66228522 107.80989273 23.40576172 107.76757812 C19.6587655 96.8766433 15.69085285 86.13184955 11.21826172 75.51757812 C10.9405191 74.85658112 10.66277649 74.19558411 10.37661743 73.51455688 C-1.63110335 42.34811956 -1.63110335 42.34811956 -25.54101562 20.92919922 C-31.17800795 18.85098277 -36.3605226 18.22154506 -42.34423828 18.26757812 C-43.21604736 18.27329834 -44.08785645 18.27901855 -44.98608398 18.28491211 C-56.70732066 18.60644229 -66.05961817 22.76846359 -74.59423828 30.76757812 Z M115.40576172 22.76757812 C114.71740234 23.18007813 114.02904297 23.59257813 113.31982422 24.01757812 C104.5437075 29.93557254 98.66681829 39.19294258 93.90576172 48.45507812 C93.4180127 49.39480469 92.93026367 50.33453125 92.42773438 51.30273438 C87.34919745 61.39375108 83.05959493 71.81867804 78.78076172 82.26757812 C78.42715576 83.13063568 78.0735498 83.99369324 77.70922852 84.88290405 C76.69293328 87.37322408 75.68406447 89.86637626 74.67919922 92.36132812 C74.37762909 93.10534378 74.07605896 93.84935944 73.76535034 94.61592102 C72.03699364 98.94965612 70.61120261 103.2595696 69.40576172 107.76757812 C77.93421425 107.81418227 86.46261243 107.84958859 94.99116135 107.87120247 C98.95248708 107.88158273 102.91372486 107.89563495 106.875 107.91845703 C110.70702208 107.94039305 114.53896026 107.95218988 118.37104034 107.95733261 C119.82366504 107.96099151 121.27628582 107.96813482 122.72887421 107.97903824 C140.4759691 108.10679743 155.77772019 106.28043834 168.99169922 93.44726562 C172.52624877 89.52380124 175.1325081 85.52285355 177.40576172 80.76757812 C177.91236328 79.77951172 177.91236328 79.77951172 178.42919922 78.77148438 C182.49731238 69.19835569 181.76196908 56.30679418 178.34326172 46.70507812 C175.80077193 41.02732706 172.654292 36.30052884 168.40576172 31.76757812 C167.51244141 30.81238281 167.51244141 30.81238281 166.60107422 29.83789062 C156.41363883 19.98862736 143.86812702 18.29361327 130.38623047 18.49023438 C124.72642106 18.70164892 120.25044523 19.77472345 115.40576172 22.76757812 Z M-174.40673828 142.20507812 C-180.57555211 149.4314029 -179.78063041 156.4376294 -179.77954102 165.57763672 C-179.78172431 167.62944386 -179.79990045 169.68070985 -179.81884766 171.73242188 C-179.82078125 173.04082031 -179.82271484 174.34921875 -179.82470703 175.69726562 C-179.82881592 176.88562012 -179.8329248 178.07397461 -179.8371582 179.29833984 C-179.46707766 184.58361065 -178.65797619 188.54018823 -175.15673828 192.58007812 C-169.58328436 197.33790464 -165.42633262 197.89378934 -158.26042175 197.88783264 C-156.98301117 197.88920731 -155.70560059 197.89058197 -154.38948059 197.89199829 C-152.98141456 197.8884596 -151.57334876 197.8848248 -150.1652832 197.88110352 C-148.6768799 197.88082133 -147.18847646 197.88098 -145.70007324 197.88154602 C-141.66536181 197.88183275 -137.63068015 197.875956 -133.59597564 197.86897206 C-129.37724315 197.86271795 -125.15850997 197.8621331 -120.93977356 197.86094666 C-112.95363287 197.85783942 -104.96750588 197.8496342 -96.98137122 197.83959717 C-87.88832254 197.82841719 -78.79527321 197.82292083 -69.70221937 197.81790173 C-50.99954966 197.80745109 -32.29689874 197.78911314 -13.59423828 197.76757812 C-13.59423828 177.96757812 -13.59423828 158.16757813 -13.59423828 137.76757812 C-33.16129956 137.72241348 -52.72831856 137.68557857 -72.29541874 137.66395378 C-81.38096547 137.65364569 -90.4664775 137.63959427 -99.55200195 137.61669922 C-107.4718824 137.59675106 -115.39173771 137.58385829 -123.31164259 137.57940114 C-127.5043079 137.57679618 -131.69690129 137.57068308 -135.88954353 137.55611801 C-139.83834458 137.54251159 -143.78704428 137.53836167 -147.73586655 137.54136276 C-149.18262089 137.54081397 -150.62937873 137.53685476 -152.07611275 137.52916718 C-154.05735425 137.51915853 -156.03865051 137.52281404 -158.01991272 137.52706909 C-159.68052278 137.52430371 -159.68052278 137.52430371 -161.37468052 137.52148247 C-166.55192012 137.91721886 -170.45171456 138.7773909 -174.40673828 142.20507812 Z M16.40576172 137.76757812 C16.40576172 247.32757813 16.40576172 356.88757813 16.40576172 469.76757812 C36.20576172 469.76757812 56.00576172 469.76757812 76.40576172 469.76757812 C76.40576172 360.20757812 76.40576172 250.64757812 76.40576172 137.76757812 C56.60576172 137.76757812 36.80576172 137.76757812 16.40576172 137.76757812 Z M106.40576172 137.76757812 C106.40576172 157.56757813 106.40576172 177.36757812 106.40576172 197.76757812 C125.97282299 197.81274277 145.539842 197.84957768 165.10694218 197.87120247 C174.19248891 197.88151056 183.27800094 197.89556198 192.36352539 197.91845703 C200.28340584 197.93840519 208.20326115 197.95129796 216.12316602 197.95575511 C220.31583134 197.95836007 224.50842473 197.96447317 228.70106697 197.97903824 C232.64986802 197.99264466 236.59856772 197.99679458 240.54738998 197.99379349 C241.99414432 197.99434228 243.44090216 197.99830149 244.88763618 198.00598907 C246.86887769 198.01599772 248.85017395 198.01234221 250.83143616 198.00808716 C252.49204622 198.01085254 252.49204622 198.01085254 254.18620396 198.01367378 C259.36344356 197.61793739 263.263238 196.75776535 267.21826172 193.33007812 C273.38707555 186.10375335 272.59215385 179.09752685 272.59106445 169.95751953 C272.59324774 167.90571239 272.61142389 165.8544464 272.63037109 163.80273438 C272.63230469 162.49433594 272.63423828 161.1859375 272.63623047 159.83789062 C272.64033936 158.64953613 272.64444824 157.46118164 272.64868164 156.23681641 C272.2786011 150.9515456 271.46949963 146.99496802 267.96826172 142.95507812 C262.3948078 138.19725161 258.23785606 137.64136691 251.07194519 137.64732361 C249.79453461 137.64594894 248.51712402 137.64457428 247.20100403 137.64315796 C245.792938 137.64669665 244.3848722 137.65033145 242.97680664 137.65405273 C241.48840334 137.65433492 239.9999999 137.65417625 238.51159668 137.65361023 C234.47688525 137.6533235 230.44220359 137.65920025 226.40749907 137.66618419 C222.18876659 137.6724383 217.97003341 137.67302315 213.751297 137.67420959 C205.76515631 137.67731683 197.77902932 137.68552205 189.79289466 137.69555908 C180.69984598 137.70673906 171.60679665 137.71223542 162.5137428 137.71725452 C143.8110731 137.72770516 125.10842217 137.74604311 106.40576172 137.76757812 Z M-149.59423828 227.76757812 C-149.65249143 267.94237888 -149.65249143 267.94237888 -149.69189453 308.1171875 C-149.69582182 313.53409842 -149.69985116 318.95100924 -149.70410156 324.36791992 C-149.70462906 325.04683192 -149.70515656 325.72574392 -149.70570004 326.42522901 C-149.71439624 337.38260922 -149.73016256 348.33996842 -149.74854387 359.29733617 C-149.76725363 370.54438144 -149.7782076 381.79141623 -149.78241527 393.03847784 C-149.78502397 399.35500393 -149.79116093 405.6714824 -149.80569839 411.98799324 C-149.81926983 417.93291214 -149.82346178 423.87776377 -149.82045364 429.82269669 C-149.821004 432.00477527 -149.82498402 434.18685609 -149.83264923 436.36892128 C-149.8426035 439.34869636 -149.84020528 442.32821767 -149.83474731 445.30799866 C-149.840573 446.17085403 -149.84639868 447.0337094 -149.8524009 447.92271191 C-149.82097513 454.27296191 -149.47223215 459.60066212 -145.15673828 464.58007812 C-111.77689792 493.0750638 -57.48248217 469.76757812 -13.59423828 469.76757812 C-13.59423828 389.90757812 -13.59423828 310.04757812 -13.59423828 227.76757812 C-58.47423828 227.76757812 -103.35423828 227.76757812 -149.59423828 227.76757812 Z M106.40576172 227.76757812 C106.40576172 307.62757813 106.40576172 387.48757813 106.40576172 469.76757812 C177.14156252 481.83589158 177.14156252 481.83589158 237.21826172 465.33007812 C242.65773992 458.95811794 242.55283962 453.54790213 242.52601624 445.54850769 C242.52687066 444.61726918 242.52772509 443.68603067 242.5286054 442.72657281 C242.53025299 439.60504918 242.52475059 436.48357924 242.51928711 433.36206055 C242.51900506 431.12489829 242.51916333 428.88773594 242.51972961 426.65057373 C242.52001688 420.57460922 242.51413152 414.49866439 242.50715566 408.42270446 C242.5009104 402.07390298 242.50031739 395.72510107 242.49913025 389.376297 C242.49637387 378.71936665 242.49012486 368.06244408 242.48120117 357.40551758 C242.47201995 346.42960648 242.46495405 335.45369736 242.46069336 324.4777832 C242.46042536 323.79415 242.46015736 323.1105168 242.45988125 322.40616745 C242.45756835 316.45939509 242.45541557 310.51262268 242.45327854 304.56585026 C242.44387156 278.96641941 242.42395031 253.36700772 242.40576172 227.76757812 C197.52576172 227.76757812 152.64576172 227.76757812 106.40576172 227.76757812 Z " fill="#000000" transform="translate(209.59423828125,12.232421875)"/>
</svg>
