<?xml version="1.0" encoding="UTF-8"?>
<svg version="1.1" xmlns="http://www.w3.org/2000/svg" width="512" height="512">
<path d="M0 0 C2.89493339 1.09985564 4.4413403 2.72293388 6.62974763 4.9145785 C7.5224943 5.80135202 8.41524097 6.68812555 9.33504057 7.601771 C10.32168949 8.59697933 11.30819913 9.59232577 12.29458451 10.58779532 C13.34509587 11.63699901 14.39626602 12.68554344 15.44803905 13.73348236 C18.34178384 16.62050269 21.22606382 19.51682183 24.10892606 22.41470355 C27.21730757 25.5360129 30.33432545 28.64867615 33.45031571 31.76238638 C38.84960439 37.16010026 44.24336314 42.56328977 49.63342881 47.970213 C57.42661046 55.78775213 65.22804047 63.5970166 73.03152332 71.40427148 C85.6912261 84.07054385 98.34421174 96.74350442 110.99300981 109.4206658 C123.28181696 121.7370004 135.5737639 134.05018735 147.86996293 146.35914236 C148.62760891 147.11757652 149.3852549 147.87601067 150.16585985 148.65742768 C153.96667981 152.46216269 157.76756176 156.26683577 161.56847453 160.07147807 C193.11218039 191.64629564 224.64500151 223.23196637 256.17074418 254.82471853 C254.67099023 258.32263297 252.66257906 260.58612208 249.98462701 263.27089792 C249.10181263 264.1607779 248.21899824 265.05065787 247.30943191 265.96750391 C246.32381296 266.95087148 245.33809656 267.93414138 244.35229325 268.91732413 C243.30942349 269.96464556 242.26698565 271.01239721 241.22494376 272.06054235 C238.35711206 274.94257203 235.48303086 277.8182982 232.60787272 280.69301647 C229.50950337 283.79303236 226.41685349 286.89874536 223.32340837 290.00367361 C216.55827101 296.79166885 209.78566901 303.5721838 203.01162219 310.35128623 C198.7847728 314.58139044 194.55955878 318.81312546 190.33469605 323.04521376 C178.64390676 334.75556668 166.95154112 346.46433903 155.25241876 358.16636759 C154.5036896 358.91528432 153.75496044 359.66420104 152.98354252 360.43581222 C151.46561258 361.95410842 149.94768135 363.47240335 148.42974885 364.990697 C147.67622067 365.744408 146.92269249 366.49811899 146.14633012 367.27466971 C145.39188483 368.02929555 144.63743953 368.78392139 143.86013226 369.56141468 C131.62195479 381.80313763 119.39557186 394.05656736 107.17431612 406.31518159 C94.63595968 418.89155991 82.088326 431.45861736 69.53109515 444.01615071 C62.47703556 451.07079609 55.42702115 458.12938185 48.38710237 465.19814116 C42.39572652 471.21394862 36.39591673 477.2211791 30.38476612 483.21722988 C27.31566545 486.27912899 24.25082172 489.3450021 21.19662881 492.42177778 C18.40434405 495.23451131 15.6009234 498.03560593 12.78791861 500.82761314 C11.76872884 501.8432809 10.75380753 502.8632524 9.74349006 503.88774613 C8.37666524 505.27251569 6.9930645 506.64066811 5.60854363 508.00774485 C4.45961725 509.15789292 4.45961725 509.15789292 3.28748024 510.3312763 C1.17074418 511.82471853 1.17074418 511.82471853 -0.99783361 511.64741349 C-3.2205429 510.64894809 -4.59208641 509.45662027 -6.3285234 507.74537283 C-7.32393897 506.77382506 -7.32393897 506.77382506 -8.33946395 505.78265005 C-9.39595389 504.72646223 -9.39595389 504.72646223 -10.47378707 503.64893728 C-11.20296844 502.92736944 -11.9321498 502.2058016 -12.68342757 501.46236807 C-14.22117301 499.93542359 -15.75496298 498.40448682 -17.28506637 496.86988455 C-19.63636936 494.51760723 -22.00818515 492.18746224 -24.38199019 489.85792166 C-25.87222128 488.37289574 -27.36119765 486.88660942 -28.84878707 485.39893728 C-29.92045875 484.3518585 -29.92045875 484.3518585 -31.01378036 483.28362662 C-31.66162993 482.62647162 -32.30947951 481.96931662 -32.9769609 481.29224783 C-33.55335814 480.71790503 -34.12975539 480.14356222 -34.72361922 479.55181509 C-35.82925582 477.82471853 -35.82925582 477.82471853 -35.61785918 475.95934755 C-34.63489455 473.29861223 -33.32430283 471.94715163 -31.31723857 469.9435578 C-30.55935068 469.17969676 -29.80146279 468.41583573 -29.0206086 467.62882739 C-28.17918567 466.79614298 -27.33776273 465.96345856 -26.47084212 465.10554129 C-25.58385684 464.21599273 -24.69687155 463.32644417 -23.78300792 462.40993959 C-21.31783823 459.93804988 -18.84339153 457.47563177 -16.36736143 455.01462728 C-13.70004086 452.36024095 -11.04137381 449.69721241 -8.3816545 447.03521353 C-3.77133269 442.42331733 0.84445779 437.81695337 5.4639895 433.21428305 C12.14307532 426.55956021 18.81387901 419.89658604 25.482679 413.23155752 C36.3021231 402.41868214 47.12825219 391.61252565 57.95858598 380.81055838 C68.48032521 370.31634882 78.99891447 359.81899849 89.51327348 349.31739432 C90.48514645 348.3467036 90.48514645 348.3467036 91.47665323 347.35640296 C94.7269776 344.10999365 97.97724005 340.86352234 101.22747171 337.61702019 C128.19896711 310.67663381 155.18131271 283.74713547 182.17074418 256.82471853 C180.75102413 253.59643504 179.04237866 251.45103176 176.54850316 248.97034842 C175.4129848 247.83348215 175.4129848 247.83348215 174.25452667 246.67364889 C173.41922541 245.84758391 172.58392414 245.02151892 171.72331071 244.17042166 C170.83884898 243.28777891 169.95438726 242.40513617 169.04312366 241.49574667 C166.58741516 239.04527321 164.12554206 236.60107519 161.66266811 234.15780646 C159.00802741 231.5220712 156.35921292 228.88049313 153.70979142 226.23951346 C149.11824714 221.66398168 144.52333627 217.09185366 139.92639947 212.52174002 C132.66504825 205.30227293 125.41345997 198.07304373 118.16334367 190.84229666 C115.68362394 188.36945674 113.2038282 185.89669306 110.72400022 183.4239617 C110.1042954 182.80602854 109.48459058 182.18809537 108.84610683 181.55143696 C101.79248389 174.5183081 94.73653387 167.48751569 87.67977738 160.45753103 C87.03467329 159.81486949 86.38956919 159.17220795 85.72491648 158.51007181 C75.25941095 148.08461402 64.78802399 137.66507786 54.31535224 127.24681956 C43.56997748 116.55679839 32.83417498 105.8572258 22.10643333 95.14950949 C15.48481725 88.54099458 8.85528915 81.94061724 2.2155055 75.35035521 C-2.32952801 70.83793863 -6.86554455 66.31659087 -11.3944585 61.78799635 C-14.01075339 59.17247102 -16.63104587 56.56129065 -19.26228881 53.96079642 C-22.10931107 51.14686053 -24.9368447 48.31413372 -27.76277328 45.47901541 C-29.02576343 44.23991793 -29.02576343 44.23991793 -30.31426853 42.97578818 C-31.06345753 42.21787733 -31.81264653 41.45996649 -32.58453822 40.67908865 C-33.56771668 39.70038431 -33.56771668 39.70038431 -34.57075733 38.70190817 C-35.82925582 36.82471853 -35.82925582 36.82471853 -35.61618477 34.69260508 C-34.6580318 32.41829425 -33.48234081 31.08338302 -31.74991012 29.32545096 C-31.1022116 28.66184057 -30.45451308 27.99823019 -29.78718734 27.31451041 C-29.08306212 26.61018378 -28.37893691 25.90585715 -27.65347457 25.18018728 C-26.93190673 24.45100592 -26.21033889 23.72182455 -25.46690536 22.97054678 C-23.93996087 21.43280134 -22.40902411 19.89901137 -20.87442183 18.36890799 C-18.52214451 16.017605 -16.19199952 13.6457892 -13.86245894 11.27198416 C-12.37743303 9.78175307 -10.89114671 8.2927767 -9.40347457 6.80518728 C-8.70542205 6.0907395 -8.00736953 5.37629172 -7.2881639 4.640194 C-6.6310089 3.99234442 -5.9738539 3.34449484 -5.29678512 2.67701346 C-4.72244231 2.10061621 -4.14809951 1.52421896 -3.55635238 0.93035513 C-1.82925582 -0.17528147 -1.82925582 -0.17528147 0 0 Z " fill="#000000" transform="translate(145.82925581932068,0.17528146505355835)"/>
</svg>
