<svg version="1.1" xmlns="http://www.w3.org/2000/svg" width="512px" height="512px" transform="rotate(0) scale(1, 1)">
<path d="M0 0 C4.99904251 0.00517863 9.9980789 0.00033654 14.99712181 -0.00277233 C23.38112801 -0.00637833 31.7650986 -0.00170264 40.14909935 0.00790882 C49.74671646 0.01878675 59.34424848 0.01525876 68.94186354 0.00425601 C77.28519766 -0.00491421 85.62850665 -0.00605531 93.9718442 -0.00086665 C98.90984452 0.00220033 103.8478053 0.00281247 108.78580284 -0.00393963 C198.42039913 -0.10947272 198.42039913 -0.10947272 235.45232201 19.26865101 C236.05270287 19.58060413 236.65308372 19.89255726 237.27165794 20.21396351 C245.74660123 24.66636297 253.39415256 29.75935233 260.45232201 36.26865101 C261.0636599 36.83084339 261.67499779 37.39303577 262.30486107 37.97226429 C289.34427542 63.16898285 302.75919992 94.8115521 307.45232201 131.26865101 C307.59122164 132.34011073 307.59122164 132.34011073 307.73292732 133.43321609 C308.82888633 143.50648752 308.60841914 153.64073671 308.61345482 163.75912952 C308.61808991 165.935288 308.62311549 168.11144567 308.62849998 170.28760242 C308.64156538 176.17900447 308.64805826 182.07039514 308.65251064 187.9618094 C308.6554528 191.65482466 308.65955985 195.34783691 308.66401482 199.04085064 C308.67767859 210.63048079 308.68734892 222.22010392 308.69121671 233.80974156 C308.69187985 235.78523303 308.69187985 235.78523303 308.69255638 237.80063343 C308.69277781 238.46048117 308.69299924 239.1203289 308.69322738 239.80017202 C308.69740609 251.11501285 308.71753709 262.42978183 308.7422173 273.74459797 C308.76395689 284.07550369 308.7739276 294.40638061 308.77525783 304.73730892 C308.77629774 310.88718141 308.78202904 317.03695667 308.80007744 323.18680477 C308.95146612 377.9283883 306.05662564 430.0509693 265.82732201 471.39365101 C238.64995902 498.28706025 201.71219507 509.01300483 164.38591576 511.36142445 C163.70967848 511.40397342 163.0334412 511.4465224 162.33671188 511.49036074 C143.80530751 512.62305496 125.26160413 512.56253247 106.70271492 512.53730202 C101.6756452 512.53212417 96.64858158 512.53696528 91.62151146 512.54007435 C83.19042689 512.54368056 74.75937772 512.53900407 66.32829857 512.5293932 C56.67615005 512.51851522 47.02408613 512.5220432 37.37193966 512.53304601 C28.98189684 512.5422156 20.591879 512.54335763 12.20183277 512.53816867 C7.23588685 512.53510135 2.26998025 512.53449054 -2.69596291 512.54124165 C-20.98067209 512.56264535 -39.22674518 512.51000267 -57.48127174 511.36142445 C-59.37756073 511.24211756 -59.37756073 511.24211756 -61.31215858 511.12040043 C-95.01295534 508.74750296 -129.40591994 498.92947329 -154.41877174 475.27646351 C-156.25725503 473.5425545 -158.13638475 471.96729027 -160.11017799 470.39365101 C-187.69871975 446.73712105 -198.65030046 407.02717711 -201.54767799 372.26865101 C-201.75411038 369.18548949 -201.9148014 366.1011954 -202.06330299 363.01474476 C-202.10547447 362.14543324 -202.14764595 361.27612171 -202.19109535 360.38046741 C-202.63677307 350.84608441 -202.91409732 341.31117649 -203.11017799 331.76865101 C-203.13102455 330.76706959 -203.15187111 329.76548817 -203.17334938 328.73355579 C-204.27077877 273.33824107 -204.69841634 217.6394172 -202.54767799 162.26865101 C-202.5038398 161.13810291 -202.5038398 161.13810291 -202.45911598 159.98471546 C-200.45390797 110.05030994 -188.56712047 69.38760664 -151.54767799 34.45615101 C-145.6635391 29.15335561 -139.46068146 25.10490293 -132.54767799 21.26865101 C-131.95922096 20.93623402 -131.37076393 20.60381702 -130.76447487 20.26132679 C-91.10264062 -1.89203464 -44.03124679 -0.06020729 0 0 Z M-128.18439674 77.79990101 C-160.46780842 111.41815513 -155.70835746 164.92212816 -155.71493506 207.93540454 C-155.71565552 210.59402304 -155.71780824 213.25263666 -155.72043228 215.91125393 C-155.72963411 225.25719616 -155.73377405 234.60312432 -155.73298073 243.94907093 C-155.73238263 252.54496838 -155.74289521 261.14080254 -155.75872439 269.73668402 C-155.77197691 277.210263 -155.7771573 284.68382177 -155.77652532 292.15741235 C-155.77627528 296.57924664 -155.77884176 301.00102463 -155.78970337 305.42284679 C-155.83049747 323.30395681 -155.62322064 341.12732753 -154.63874245 358.98471546 C-154.57841507 360.10458648 -154.57841507 360.10458648 -154.51686895 361.24708116 C-152.93478834 389.8746837 -146.80746613 415.08957056 -126.54767799 436.26865101 C-125.60988503 437.31859241 -125.60988503 437.31859241 -124.65314674 438.38974476 C-103.88395901 460.82046751 -69.70687566 464.04540614 -41.0350132 465.15887928 C-27.87285223 465.57318794 -14.69926681 465.65183801 -1.53205299 465.80087757 C1.92750052 465.84101461 5.38699821 465.88513689 8.8465023 465.92929935 C38.41611044 466.30556499 67.96992562 466.32707648 97.54000092 465.98111153 C101.79069123 465.93138393 106.04135352 465.88484451 110.29216576 465.84677601 C127.29151692 465.69283451 144.25842575 465.45573512 161.22575951 464.33896351 C162.41441612 464.26078388 163.60307274 464.18260426 164.82774925 464.10205555 C191.16851807 462.17728676 214.14024303 454.99759439 233.45232201 436.26865101 C234.06462669 435.72982288 234.67693138 435.19099476 235.30779076 434.63583851 C256.94428344 414.9302914 260.78093155 382.55189116 262.12256145 355.03405952 C262.77715913 339.5203457 262.61737684 323.97603057 262.61957908 308.45173907 C262.62029771 305.59650627 262.62244713 302.74127805 262.62507629 299.88604641 C262.63428664 289.86392005 262.63841686 279.84180685 262.63762474 269.8196764 C262.63702599 260.57731662 262.6475492 251.33501558 262.6633684 242.09267062 C262.67658436 234.07652401 262.6818028 226.06039625 262.68116933 218.04423887 C262.68091831 213.29274499 262.68354354 208.54130338 262.69434738 203.78982067 C262.73201121 185.95966517 262.66190814 168.17604975 261.54338646 150.37534046 C261.42309342 148.45836117 261.42309342 148.45836117 261.30037022 146.50265503 C259.33226509 118.41245284 251.42299337 94.53044003 231.45232201 74.26865101 C230.46618919 73.26318226 230.46618919 73.26318226 229.46013451 72.23740101 C196.13818037 40.77461169 138.89868002 47.09916711 96.80922198 47.1343255 C92.70869246 47.13691914 88.60816477 47.13449269 84.50763512 47.13293934 C77.63234102 47.13113773 70.7570578 47.13347063 63.88176537 47.13827991 C56.01439383 47.14372078 48.14704824 47.14195291 40.27967733 47.13645351 C33.43543307 47.13186694 26.59119647 47.13129847 19.74695116 47.13389218 C15.69829197 47.13542461 11.64964482 47.13573481 7.60098648 47.13235569 C-65.55388755 45.03736181 -65.55388755 45.03736181 -128.18439674 77.79990101 Z " fill="#007bff" transform="translate(203.5476779937744,-0.26865100860595703)"/>
<path d="M0 0 C2.48493079 2.18535644 4.88651423 4.43508515 7.27734375 6.72265625 C8.07398438 7.44453125 8.870625 8.16640625 9.69140625 8.91015625 C33.19966753 31.00045891 46.3204144 63.94948736 47.4921875 95.8671875 C48.34301758 131.47646697 37.08763294 165.1438657 12.5390625 191.36328125 C11.79269531 192.141875 11.04632813 192.92046875 10.27734375 193.72265625 C9.52066406 194.5425 8.76398438 195.36234375 7.984375 196.20703125 C-5.48449679 210.35703685 -22.46951753 220.10613389 -40.72265625 226.72265625 C-41.77066406 227.10421875 -42.81867188 227.48578125 -43.8984375 227.87890625 C-77.11600619 239.02177554 -114.03482503 235.20377273 -145.22265625 219.84765625 C-158.71908497 212.90113873 -170.14993844 203.58112319 -180.72265625 192.72265625 C-181.22925781 192.26117188 -181.73585937 191.7996875 -182.2578125 191.32421875 C-203.23027261 171.73718311 -215.52057144 139.36241822 -216.84716797 111.06689453 C-217.88865492 73.90327626 -207.72919505 39.57911654 -181.984375 12.08203125 C-181.23800781 11.3034375 -180.49164063 10.52484375 -179.72265625 9.72265625 C-178.96597656 8.9028125 -178.20929688 8.08296875 -177.4296875 7.23828125 C-131.22283272 -41.30529865 -50.27052183 -42.04837048 0 0 Z M-141.72265625 38.72265625 C-142.48449219 39.38910156 -143.24632812 40.05554688 -144.03125 40.7421875 C-159.72534209 55.40269986 -168.84926354 76.74354772 -169.8828125 98.01953125 C-170.45157072 121.85791936 -162.29331623 143.25068399 -145.95703125 160.48828125 C-145.2196875 161.225625 -144.48234375 161.96296875 -143.72265625 162.72265625 C-143.0265625 163.41875 -142.33046875 164.11484375 -141.61328125 164.83203125 C-125.03713536 180.44022702 -103.35188891 187.55433224 -80.80859375 186.97265625 C-61.01232874 186.03221611 -42.47672594 177.70143951 -27.72265625 164.72265625 C-26.96082031 164.05621094 -26.19898438 163.38976562 -25.4140625 162.703125 C-9.65658122 147.98339812 -0.87335936 126.47911695 0.43359375 105.17578125 C1.16035355 82.76735401 -6.97439994 61.48823412 -21.72265625 44.72265625 C-22.38910156 43.96082031 -23.05554688 43.19898438 -23.7421875 42.4140625 C-38.46191438 26.65658122 -59.96619555 17.87335936 -81.26953125 16.56640625 C-103.67795849 15.83964645 -124.95707838 23.97439994 -141.72265625 38.72265625 Z " fill="#007bff" transform="translate(341.72265625,154.27734375)"/>
<path d="M0 0 C6.48193639 5.31024308 10.85387115 12.00903975 12.48046875 20.3046875 C13.41905553 30.5930426 11.23454571 39.26247128 4.5859375 47.2578125 C-2.74139297 54.3812284 -10.32715209 56.58576649 -20.2512207 56.62597656 C-28.34208245 56.4910529 -35.75195033 54.232479 -41.51953125 48.3046875 C-47.69246907 40.21334294 -51.08281485 32.15310566 -50.34375 21.85546875 C-48.99165826 13.15564613 -45.00943219 6.04540493 -38.26953125 0.3671875 C-26.53452359 -7.9672233 -11.92877515 -8.02649367 0 0 Z " fill="#007bff" transform="translate(412.51953125,93.6953125)"/>
</svg>