<svg version="1.1" xmlns="http://www.w3.org/2000/svg" width="512px" height="512px" transform="rotate(0) scale(1, 1)">
<path d="M0 0 C1.0892276 -0.00409882 2.1784552 -0.00819763 3.3006897 -0.01242065 C6.8085652 -0.02193572 10.31633227 -0.02195595 13.82421875 -0.01953125 C15.60809494 -0.02012039 15.60809494 -0.02012039 17.42800903 -0.02072144 C56.47262349 -0.00521379 56.47262349 -0.00521379 75.51171875 3.16796875 C75.51171875 30.22796875 75.51171875 57.28796875 75.51171875 85.16796875 C52.38671875 85.60546875 52.38671875 85.60546875 45.17919922 85.73608398 C16.07466435 85.03972407 16.07466435 85.03972407 -8.61328125 98.16796875 C-15.32157151 106.33764508 -16.55654969 117.8205197 -16.69360352 128.02124023 C-16.70363624 128.67628823 -16.71366896 129.33133623 -16.7240057 130.00623417 C-16.75507604 132.10047582 -16.78003007 134.19473662 -16.8046875 136.2890625 C-16.83266418 138.22465027 -16.83266418 138.22465027 -16.86120605 140.19934082 C-16.92930019 145.00131645 -16.98957853 149.80340034 -17.05078125 154.60546875 C-17.19515625 165.35109375 -17.33953125 176.09671875 -17.48828125 187.16796875 C12.21171875 187.16796875 41.91171875 187.16796875 72.51171875 187.16796875 C71.36293692 203.25091436 71.36293692 203.25091436 70.48022461 209.91748047 C70.38098222 210.69231844 70.28173983 211.46715641 70.17949009 212.26547432 C69.86550517 214.71002375 69.54619932 217.1538402 69.2265625 219.59765625 C69.02865408 221.13219671 68.83110362 222.66678339 68.63391113 224.20141602 C67.90999148 229.81582449 67.17921204 235.42934675 66.44921875 241.04296875 C64.81984375 253.62421875 63.19046875 266.20546875 61.51171875 279.16796875 C35.44171875 279.16796875 9.37171875 279.16796875 -17.48828125 279.16796875 C-17.48828125 356.05796875 -17.48828125 432.94796875 -17.48828125 512.16796875 C-48.83828125 512.16796875 -80.18828125 512.16796875 -112.48828125 512.16796875 C-112.48828125 435.27796875 -112.48828125 358.38796875 -112.48828125 279.16796875 C-138.22828125 279.16796875 -163.96828125 279.16796875 -190.48828125 279.16796875 C-190.48828125 248.80796875 -190.48828125 218.44796875 -190.48828125 187.16796875 C-164.74828125 187.16796875 -139.00828125 187.16796875 -112.48828125 187.16796875 C-112.56704354 163.38618332 -112.56704354 163.38618332 -112.66845703 139.60449219 C-112.77594779 102.21640152 -110.70571437 64.45038956 -84.48828125 35.16796875 C-83.6890625 34.27464844 -82.88984375 33.38132813 -82.06640625 32.4609375 C-60.72436714 9.88762691 -30.55352584 0.03575339 0 0 Z " fill="#007bff" transform="translate(313.48828125,-0.16796875)"/>
</svg>