<?xml version="1.0" encoding="UTF-8"?>
<svg version="1.1" xmlns="http://www.w3.org/2000/svg" width="512" height="512">
<path d="M0 0 C2.22270929 0.99846541 3.5942528 2.19079323 5.33068979 3.90204066 C5.99430017 4.54973918 6.65791055 5.19743769 7.34163034 5.86476344 C8.04595697 6.56888865 8.7502836 7.27301387 9.47595346 7.99847621 C10.20513483 8.72004405 10.93431619 9.44161189 11.68559396 10.18504542 C13.2233394 11.7119899 14.75712937 13.24292667 16.28723276 14.77752894 C18.63853575 17.12980626 21.01035154 19.45995126 23.38415658 21.78949183 C24.87438767 23.27451775 26.36336404 24.76080407 27.85095346 26.24847621 C28.92262514 27.29555499 28.92262514 27.29555499 30.01594675 28.36378688 C30.66379632 29.02094187 31.3116459 29.67809687 31.97912729 30.35516566 C32.84372316 31.21667987 32.84372316 31.21667987 33.72578561 32.0955984 C34.83142221 33.82269496 34.83142221 33.82269496 34.62002558 35.68806595 C33.63706094 38.34880126 32.32646922 39.70026186 30.31940496 41.70385569 C29.56151707 42.46771673 28.80362918 43.23157776 28.02277499 44.0185861 C27.18135206 44.85127051 26.33992912 45.68395493 25.47300851 46.5418722 C24.58602323 47.43142076 23.69903794 48.32096933 22.78517431 49.23747391 C20.32000462 51.70936362 17.84555792 54.17178172 15.36952782 56.63278621 C12.70220725 59.28717255 10.0435402 61.95020108 7.38382089 64.61219996 C2.77349908 69.22409617 -1.8422914 73.83046012 -6.46182311 78.43313044 C-13.14090893 85.08785328 -19.81171262 91.75082745 -26.48051261 98.41585597 C-37.29995671 109.22873135 -48.1260858 120.03488784 -58.95641959 130.83685511 C-69.47815882 141.33106468 -79.99674808 151.82841501 -90.51110709 162.33001918 C-91.48298006 163.3007099 -91.48298006 163.3007099 -92.47448684 164.29101053 C-95.72481121 167.53741984 -98.97507366 170.78389116 -102.22530532 174.0303933 C-129.19680072 200.97077968 -156.17914632 227.90027802 -183.16857779 254.82269496 C-181.74885774 258.05097846 -180.04021227 260.19638174 -177.54633677 262.67706507 C-176.78932453 263.43497592 -176.03231229 264.19288676 -175.25236028 264.9737646 C-174.41705902 265.79982959 -173.58175775 266.62589457 -172.72114432 267.47699183 C-171.83668259 268.35963458 -170.95222087 269.24227732 -170.04095727 270.15166682 C-167.58524877 272.60214029 -165.12337567 275.0463383 -162.66050172 277.48960704 C-160.00586102 280.1253423 -157.35704653 282.76692036 -154.70762503 285.40790004 C-150.11608075 289.98343181 -145.52116988 294.55555983 -140.92423308 299.12567347 C-133.66288186 306.34514056 -126.41129358 313.57436976 -119.16117728 320.80511683 C-116.68145755 323.27795675 -114.20166181 325.75072043 -111.72183383 328.22345179 C-111.10212901 328.84138496 -110.48242419 329.45931812 -109.84394044 330.09597653 C-102.7903175 337.12910539 -95.73436748 344.1598978 -88.67761099 351.18988246 C-88.0325069 351.832544 -87.3874028 352.47520554 -86.72275009 353.13734168 C-76.25724456 363.56279947 -65.7858576 373.98233563 -55.31318585 384.40059394 C-44.56781109 395.0906151 -33.83200859 405.79018769 -23.10426694 416.497904 C-16.48265086 423.10641891 -9.85312276 429.70679625 -3.21333911 436.29705828 C1.3316944 440.80947486 5.86771094 445.33082263 10.39662489 449.85941714 C13.01291978 452.47494247 15.63321226 455.08612285 18.2644552 457.68661708 C21.11147746 460.50055296 23.93901109 463.33327977 26.76493967 466.16839808 C27.6069331 466.99446307 28.44892653 467.82052806 29.31643492 468.67162532 C30.06562392 469.42953616 30.81481292 470.187447 31.58670461 470.96832484 C32.24215692 471.6207944 32.89760922 472.27326396 33.57292372 472.94550532 C34.83142221 474.82269496 34.83142221 474.82269496 34.61835116 476.95480841 C33.66019819 479.22911925 32.4845072 480.56403047 30.75207651 482.32196254 C30.10437799 482.98557292 29.45667947 483.6491833 28.78935373 484.33290309 C27.73316591 485.38939303 27.73316591 485.38939303 26.65564096 486.46722621 C25.93407312 487.19640757 25.21250528 487.92558894 24.46907175 488.67686671 C22.94212726 490.21461215 21.4111905 491.74840212 19.87658823 493.2785055 C17.52431091 495.62980849 15.19416591 498.00162429 12.86462533 500.37542933 C11.37959942 501.86566042 9.8933131 503.35463679 8.40564096 504.84222621 C7.70758844 505.55667399 7.00953592 506.27112178 6.29033029 507.00721949 C5.30459779 507.97899386 5.30459779 507.97899386 4.29895151 508.97040004 C3.7246087 509.54679728 3.1502659 510.12319453 2.55851877 510.71705836 C0.83142221 511.82269496 0.83142221 511.82269496 -0.99783361 511.64741349 C-3.892767 510.54755786 -5.43917391 508.92447961 -7.62758124 506.73283499 C-8.52032791 505.84606147 -9.41307458 504.95928795 -10.33287418 504.0456425 C-11.3195231 503.05043416 -12.30603274 502.05508772 -13.29241812 501.05961818 C-14.34292948 500.01041448 -15.39409963 498.96187005 -16.44587266 497.91393113 C-19.33961745 495.0269108 -22.22389743 492.13059166 -25.10675967 489.23270994 C-28.21514118 486.11140059 -31.33215906 482.99873734 -34.44814932 479.88502711 C-39.847438 474.48731323 -45.24119675 469.08412372 -50.63126242 463.6772005 C-58.42444407 455.85966136 -66.22587408 448.0503969 -74.02935693 440.24314202 C-86.68905971 427.57686964 -99.34204535 414.90390907 -111.99084342 402.22674769 C-124.27965057 389.9104131 -136.57159751 377.59722614 -148.86779654 365.28827113 C-149.62544252 364.52983698 -150.38308851 363.77140282 -151.16369346 362.98998582 C-154.96451342 359.1852508 -158.76539537 355.38057772 -162.56630814 351.57593542 C-194.110014 320.00111786 -225.64283512 288.41544712 -257.16857779 256.82269496 C-255.66882384 253.32478052 -253.66041267 251.06129141 -250.98246062 248.37651557 C-250.09964624 247.48663559 -249.21683185 246.59675562 -248.30726552 245.67990959 C-247.32164657 244.69654202 -246.33593017 243.71327212 -245.35012686 242.73008937 C-244.3072571 241.68276794 -243.26481926 240.63501628 -242.22277737 239.58687115 C-239.35494567 236.70484146 -236.48086447 233.82911529 -233.60570633 230.95439702 C-230.50733698 227.85438113 -227.4146871 224.74866813 -224.32124197 221.64373988 C-217.55610462 214.85574464 -210.78350262 208.07522969 -204.0094558 201.29612726 C-199.78260641 197.06602305 -195.55739239 192.83428803 -191.33252966 188.60219973 C-179.64174037 176.89184681 -167.94937473 165.18307446 -156.25025237 153.4810459 C-155.50152321 152.73212918 -154.75279405 151.98321245 -153.98137613 151.21160128 C-152.46344618 149.69330507 -150.94551496 148.17501014 -149.42758246 146.65671649 C-148.29729019 145.52615 -148.29729019 145.52615 -147.14416373 144.37274379 C-146.38971844 143.61811794 -145.63527314 142.8634921 -144.85796587 142.08599881 C-132.6197884 129.84427586 -120.39340547 117.59084613 -108.17214973 105.3322319 C-95.63379329 92.75585359 -83.08615961 80.18879613 -70.52892876 67.63126278 C-63.47486917 60.5766174 -56.42485476 53.51803164 -49.38493598 46.44927233 C-43.39356013 40.43346487 -37.39375034 34.42623439 -31.38259973 28.43018361 C-28.31349906 25.3682845 -25.24865533 22.30241139 -22.19446242 19.22563571 C-19.40217766 16.41290218 -16.59875701 13.61180756 -13.78575222 10.81980035 C-12.76656245 9.80413259 -11.75164114 8.78416109 -10.74132366 7.75966736 C-9.37449885 6.3748978 -7.99089811 5.00674538 -6.60637724 3.63966864 C-5.84042632 2.87290327 -5.0744754 2.10613789 -4.28531384 1.31613719 C-2.16857779 -0.17730504 -2.16857779 -0.17730504 0 0 Z " fill="#000000" transform="translate(367.1685777902603,0.17730504274368286)"/>
</svg>
