<svg version="1.1" xmlns="http://www.w3.org/2000/svg" width="512px" height="512px" transform="rotate(0) scale(1, 1)">
<path d="M0 0 C4.25034275 2.93063049 8.08537192 6.16434511 11.83984375 9.6953125 C12.78189667 10.57872314 12.78189667 10.57872314 13.74298096 11.47998047 C24.11256049 21.285547 34.18760881 31.40049319 44.28613281 41.48339844 C47.33024766 44.52200819 50.38356697 47.55119208 53.43906021 50.57835388 C55.83459571 52.95506274 58.22319974 55.33865127 60.61009979 57.72402954 C61.73165146 58.8426078 62.85563717 59.95875234 63.98236847 61.07211304 C69.93440531 66.95842248 75.5662368 72.9692114 80.76855469 79.53515625 C81.22001987 80.10253006 81.67148506 80.66990387 82.13663101 81.25447083 C90.36630035 91.90068691 93.53346721 104.33936218 92.125 117.625 C90.1857086 129.56566845 85.69493019 138.17388653 77.6875 147.125 C76.95402344 147.96675781 76.22054687 148.80851563 75.46484375 149.67578125 C69.22357053 156.66877675 62.61442414 163.2989503 56 169.9375 C55.10901611 170.83315674 54.21803223 171.72881348 53.30004883 172.65161133 C48.25862541 177.6808404 43.12603467 182.52669645 37.6875 187.125 C46.35508978 206.88973125 57.7982233 224.61219326 71.6875 241.125 C72.11998047 241.64094727 72.55246094 242.15689453 72.99804688 242.68847656 C83.5700712 255.26904049 94.68028716 267.20539888 106.25 278.875 C107.11230225 279.750354 107.97460449 280.62570801 108.86303711 281.52758789 C114.82463073 287.49708439 121.10241603 292.85973418 127.6875 298.125 C128.93530343 299.1732718 130.17934891 300.22604904 131.41796875 301.28515625 C145.59512036 313.26356016 161.11314397 323.84716685 177.4375 332.6875 C178.12191162 333.06358398 178.80632324 333.43966797 179.51147461 333.82714844 C182.90636195 335.64691357 182.90636195 335.64691357 186.65611267 335.92396545 C189.20503981 334.92144629 190.54295668 333.60997475 192.45532227 331.65014648 C193.18030411 330.91525497 193.90528595 330.18036346 194.65223694 329.42320251 C195.81631325 328.22178368 195.81631325 328.22178368 197.00390625 326.99609375 C197.81560776 326.17303238 198.62730927 325.34997101 199.46360779 324.50196838 C202.93453186 320.98212085 206.38780988 317.44515465 209.84204102 313.90893555 C212.36874203 311.32742644 214.9048223 308.75538701 217.44140625 306.18359375 C218.20328751 305.39681747 218.96516876 304.6100412 219.75013733 303.79942322 C226.78070422 296.67559501 234.61550184 289.82394724 244.0625 286.1875 C245.01898438 285.80722656 245.97546875 285.42695313 246.9609375 285.03515625 C258.96126324 281.02931685 272.19514099 282.21776706 283.6875 287.125 C295.01213838 293.20819796 303.61578293 302.46820173 312.58203125 311.48828125 C314.1842072 313.08775648 315.78697599 314.68663806 317.39030457 316.28495789 C320.73247544 319.6212628 324.06738494 322.96461371 327.3972168 326.31323242 C331.64453788 330.583359 335.90959427 334.8352464 340.1802721 339.08199787 C343.48799086 342.3751961 346.78604208 345.67794428 350.08133507 348.98357201 C351.64953627 350.55442223 353.22066073 352.12236023 354.79487038 353.6871891 C370.44688305 369.26631556 370.44688305 369.26631556 375.6875 379.125 C376.10469803 379.87844193 376.52189606 380.63188385 376.95173645 381.40815735 C383.15038111 393.03859008 382.44610097 406.89383745 378.78515625 419.14453125 C372.97536137 434.91988176 359.72196338 446.46063105 348 457.9375 C345.78288078 460.11925383 343.56807264 462.30328481 341.35600281 464.49015808 C339.99247275 465.83704522 338.62585554 467.18081786 337.25544739 468.52070618 C333.38342316 472.33255074 329.7355809 476.26653848 326.20697021 480.39909363 C313.99217095 494.27340302 294.96026921 503.27926574 276.6875 505.125 C250.58248658 506.38411271 226.5767624 502.79477459 201.6875 495.125 C200.88489746 494.87943359 200.08229492 494.63386719 199.25537109 494.38085938 C159.01277716 481.80453029 120.09684411 460.15291156 85.6875 436.125 C85.12095703 435.73038574 84.55441406 435.33577148 83.97070312 434.92919922 C79.84172442 432.04146861 75.75468662 429.09900833 71.6875 426.125 C71.04135742 425.65304199 70.39521484 425.18108398 69.72949219 424.69482422 C61.43748479 418.61522228 53.40376067 412.33569883 45.6171875 405.62109375 C43.10543563 403.48108116 40.55179983 401.44883842 37.9375 399.4375 C28.23899423 391.76817089 19.414056 382.86813223 10.6875 374.125 C9.02697353 372.4860345 7.36548057 370.84804776 5.703125 369.2109375 C4.27019303 367.79182168 2.83728018 366.37268616 1.40527344 364.95263672 C0.43574471 363.99310645 -0.53557893 363.03538602 -1.50878906 362.07958984 C-7.52066818 356.17192753 -13.13593064 350.09602428 -18.40039062 343.50488281 C-20.55914529 340.81801605 -22.82175538 338.31715845 -25.1875 335.8125 C-30.3683003 330.1621648 -35.10129148 324.24930541 -39.75390625 318.16357422 C-40.83380583 316.75111158 -41.91739514 315.34146521 -43.00390625 313.93408203 C-53.42389224 300.41958921 -63.03603157 286.4458912 -72.3125 272.125 C-72.73080078 271.48014648 -73.14910156 270.83529297 -73.58007812 270.17089844 C-75.91621799 266.54192242 -78.13780821 262.85206918 -80.3125 259.125 C-80.77156738 258.34463379 -81.23063477 257.56426758 -81.70361328 256.76025391 C-109.60459243 209.12207817 -141.92314231 143.00269472 -127.09570312 86.09350586 C-122.87771501 71.03317198 -115.53230994 59.63889341 -105.0078125 48.26953125 C-104.23981323 47.43950592 -104.23981323 47.43950592 -103.45629883 46.5927124 C-97.23874174 39.91722129 -90.83553335 33.42599389 -84.39453125 26.96679688 C-82.30785546 24.87033368 -80.23212575 22.76340071 -78.15625 20.65625 C-59.52790709 1.87762505 -59.52790709 1.87762505 -47.3125 -3.375 C-46.260625 -3.8390625 -45.20875 -4.303125 -44.125 -4.78125 C-29.8605905 -10.32852036 -12.8954356 -7.44692553 0 0 Z M-67.49047852 49.06274414 C-69.99763694 51.56014614 -72.51528088 54.04665991 -75.03320312 56.53320312 C-76.65170011 58.1451725 -78.26956044 59.75778141 -79.88671875 61.37109375 C-80.62854904 62.10057724 -81.37037933 62.83006073 -82.13468933 63.58164978 C-95.74629476 77.2509557 -103.06702786 92.52850022 -103.33105469 112.0078125 C-103.04830589 144.27093846 -91.50404558 175.09845681 -78.3125 204.125 C-77.8798584 205.08599609 -77.4472168 206.04699219 -77.00146484 207.03710938 C-66.80506071 229.52391978 -54.47762832 250.8960325 -40.3125 271.125 C-39.91933594 271.68864258 -39.52617188 272.25228516 -39.12109375 272.83300781 C-29.69823574 286.30830074 -19.88892342 299.53142365 -9.3125 312.125 C-8.88614258 312.63627441 -8.45978516 313.14754883 -8.02050781 313.67431641 C-2.42311221 320.38595238 3.27801428 326.96885083 9.203125 333.39453125 C11.12839214 335.51050882 12.99987778 337.65101368 14.86328125 339.8203125 C19.23237079 344.82692884 23.91750647 349.50119549 28.625 354.1875 C29.48029297 355.04666016 30.33558594 355.90582031 31.21679688 356.79101562 C35.65868717 361.22612959 40.16314394 365.51774871 44.92504883 369.60766602 C47.35756594 371.70187489 49.70591059 373.88356118 52.0625 376.0625 C57.10740453 380.65315664 62.30826793 384.93486134 67.6875 389.125 C69.03155966 390.18710825 70.37528102 391.24964469 71.71875 392.3125 C81.80788831 400.26390239 92.0644431 407.90092025 102.6875 415.125 C103.33944336 415.56875977 103.99138672 416.01251953 104.66308594 416.46972656 C149.56864785 446.78827436 216.38266957 487.01341887 273.27734375 478.59375 C284.96205483 476.25934518 293.59839683 472.84547374 302.6875 465.125 C304.234375 463.9184375 304.234375 463.9184375 305.8125 462.6875 C307.9614574 460.77212493 309.61406543 459.07808688 311.42578125 456.8984375 C315.00525785 452.76758636 318.83311544 448.93246578 322.72265625 445.09765625 C323.36793274 444.4602803 324.01320923 443.82290436 324.67803955 443.16621399 C327.38099969 440.49960441 330.08663725 437.83586704 332.80200195 435.18188477 C347.84156434 421.48457859 347.84156434 421.48457859 354.125 402.9375 C354.16496094 402.07769531 354.20492188 401.21789062 354.24609375 400.33203125 C352.76000593 391.80001657 347.65419104 385.35226837 341.62158203 379.44384766 C340.58396729 378.39790939 340.58396729 378.39790939 339.52539062 377.33084106 C337.26075205 375.05449755 334.9787255 372.79656011 332.6953125 370.5390625 C331.10409356 368.9495568 329.51376553 367.35915879 327.92428589 365.76791382 C324.60164575 362.44692162 321.27069615 359.13457845 317.93310547 355.82861328 C313.66364939 351.59889677 309.41213718 347.35167907 305.16626167 343.09830666 C301.8880637 339.81703448 298.60230793 336.54341893 295.31405258 333.27222824 C293.74371461 331.70890044 292.17530274 330.14363535 290.60889053 328.57637405 C288.41734034 326.38662865 286.21623414 324.2069627 284.01220703 322.02978516 C283.37197601 321.38662354 282.731745 320.74346191 282.07211304 320.08081055 C276.16703207 314.28592308 270.62194992 310.56173657 262.17578125 310.0234375 C250.94492634 310.48183974 243.26399597 319.29586776 235.94140625 326.78125 C235.00334765 327.73068082 234.06460951 328.67944067 233.12522888 329.62756348 C229.1596478 333.63263961 225.2070436 337.65043433 221.25756836 341.67138672 C218.83208614 344.13980569 216.39915662 346.60069161 213.96183586 349.05741882 C212.59622189 350.4385946 211.23935638 351.82840287 209.88270569 353.21838379 C205.41324438 357.72335631 201.41078785 361.3486084 195.6875 364.125 C195.0275 364.455 194.3675 364.785 193.6875 365.125 C183.44491223 366.84391179 176.42071165 363.11308861 167.79492188 358.28369141 C165.71440198 357.1397911 163.61077887 356.06751677 161.484375 355.01171875 C150.81796339 349.66865717 141.25856796 343.22091802 131.6875 336.125 C130.57182462 335.30830674 129.45595406 334.49188003 128.33984375 333.67578125 C121.6117868 328.70135979 115.09849642 323.50030808 108.6875 318.125 C108.18009277 317.70927734 107.67268555 317.29355469 107.14990234 316.86523438 C97.81204569 309.20427632 89.22007225 300.84600304 80.6875 292.3125 C80.14502625 291.77093262 79.60255249 291.22936523 79.04364014 290.67138672 C73.04194099 284.6685517 67.1872074 278.59679524 61.6875 272.125 C60.76236813 271.07640008 59.83535697 270.02945443 58.90625 268.984375 C41.81624504 249.53981644 26.62198502 228.42881675 15.5703125 204.96337891 C14.28299833 202.28266106 12.91036282 199.64612232 11.53710938 197.00854492 C8.82811456 191.00282796 8.37730379 183.77124816 10.60546875 177.5703125 C13.29769559 172.62798404 16.73440602 169.00903714 20.92578125 165.29296875 C28.02078902 158.90922539 34.80535029 152.22802423 41.56274414 145.48999023 C43.63961762 143.4229516 45.72694408 141.36683718 47.81445312 139.31054688 C49.15690508 137.97461629 50.49872501 136.63805022 51.83984375 135.30078125 C52.45447983 134.69849197 53.06911591 134.0962027 53.70237732 133.47566223 C59.83338613 127.31301334 64.73119407 120.94526024 65.0625 112 C64.89445216 102.82938917 60.3706816 97.66807896 54.30126953 91.16552734 C53.77507082 90.59905172 53.24887211 90.0325761 52.70672798 89.44893456 C46.80215027 83.12599192 40.72396864 76.97838905 34.6171875 70.8515625 C34.02285038 70.254398 33.42851326 69.65723351 32.81616592 69.04197311 C29.68201138 65.8930089 26.54513732 62.74678615 23.40576172 59.60302734 C20.19407439 56.3858234 16.99180667 53.15940817 13.79154778 49.93084145 C11.29656348 47.417135 8.79480029 44.91025731 6.29120255 42.40513229 C5.10792587 41.2188598 3.92711255 40.03012415 2.74898911 38.83873367 C-9.97848911 25.22616967 -9.97848911 25.22616967 -27 19.8125 C-43.87793203 20.05563948 -56.4051756 38.00354221 -67.49047852 49.06274414 Z " fill="#007bff" transform="translate(130.3125,6.875)"/>
</svg>