<svg version="1.1" xmlns="http://www.w3.org/2000/svg" width="512px" height="512px" transform="rotate(0) scale(1, 1)">
<path d="M0 0 C28.05 0 56.1 0 85 0 C85.66 6.93 86.32 13.86 87 21 C92.33200347 48.04087476 104.10509026 69.90876451 123 90 C123.53753906 90.60199219 124.07507813 91.20398438 124.62890625 91.82421875 C148.03377746 116.98885471 181.43472999 124.0921676 214 128 C214 155.72 214 183.44 214 212 C184.35900356 212 156.25978364 206.69890083 129 195 C128.19369141 194.65598145 127.38738281 194.31196289 126.55664062 193.95751953 C112.09784693 187.68950973 98.2948494 179.89910548 86 170 C85.99641747 171.49527411 85.99641747 171.49527411 85.99276257 173.02075577 C85.93378656 197.35410153 85.85779313 221.68734972 85.76428509 246.02058792 C85.71945193 257.78829295 85.68000894 269.55596856 85.65356445 281.32373047 C85.63048283 291.58878925 85.59697267 301.85375394 85.55129844 312.11873794 C85.52750245 317.54643983 85.5086849 322.97404932 85.50238609 328.40180206 C85.49627295 333.52689669 85.4760528 338.65175532 85.44572449 343.77676201 C85.43704284 345.64213601 85.43320074 347.50754099 85.43499184 349.37293434 C85.4456854 365.67189779 84.03897986 381.94558938 79.3125 397.625 C79.05903809 398.48488525 78.80557617 399.34477051 78.54443359 400.23071289 C71.17925495 424.26363985 58.21655976 444.8269647 41 463 C40.10796875 463.95648438 39.2159375 464.91296875 38.296875 465.8984375 C26.5988413 478.19270126 13.01206674 487.21972217 -2 495 C-2.60779297 495.31952637 -3.21558594 495.63905273 -3.84179688 495.96826172 C-41.08134839 515.30573784 -86.39108746 516.90199224 -126.0234375 504.6640625 C-133.27193259 502.30906621 -140.16664334 499.36168506 -147 496 C-147.63099609 495.69336426 -148.26199219 495.38672852 -148.91210938 495.07080078 C-163.69582718 487.80326978 -176.18310729 478.4138609 -188 467 C-188.91394531 466.14921875 -189.82789063 465.2984375 -190.76953125 464.421875 C-218.70644718 437.72393531 -234.95402594 398.88042455 -236.28515625 360.43359375 C-237.10559353 318.94416881 -224.59814932 278.80372034 -195.953125 248.10546875 C-194.35939276 246.38742539 -192.88541074 244.65134665 -191.4375 242.8125 C-188.25733428 239.14307801 -184.72611406 236.10180923 -181 233 C-180.25878906 232.3709375 -179.51757812 231.741875 -178.75390625 231.09375 C-167.21697609 221.54594573 -154.57283055 214.22551275 -141 208 C-140.08613525 207.58041016 -140.08613525 207.58041016 -139.15380859 207.15234375 C-131.58997429 203.75139083 -123.95679256 201.29134364 -115.9375 199.25 C-114.77009277 198.95186401 -114.77009277 198.95186401 -113.57910156 198.64770508 C-101.51552055 195.74143345 -89.64581887 194.68587741 -77.28417969 194.79418945 C-75.10600224 194.81266111 -72.92824842 194.81469667 -70.75 194.81445312 C-64.04198309 194.83774716 -57.69262057 195.16342243 -51 196 C-51 224.38 -51 252.76 -51 282 C-57.93 281.01 -64.86 280.02 -72 279 C-91.70640026 279.14597334 -110.11434324 284.68125448 -125 298 C-125.74765625 298.65484375 -126.4953125 299.3096875 -127.265625 299.984375 C-140.16390072 312.005217 -148.59766432 329.68938886 -149.3359375 347.3828125 C-149.71059722 371.06826759 -143.59756813 389.74513049 -126.91796875 407.17578125 C-110.9542127 422.42872071 -91.20453649 427.70097709 -69.73828125 427.3046875 C-52.05080028 426.60470869 -34.59915441 418.35251518 -22 406 C-6.13830084 388.69884472 -0.6861944 369.01421438 -0.7215271 345.97224426 C-0.71651567 344.47369468 -0.71063741 342.97514779 -0.70397437 341.47660464 C-0.68826283 337.38547528 -0.6847486 333.29441476 -0.68332577 329.20325887 C-0.67961617 324.78144167 -0.66445299 320.35966155 -0.65071106 315.93786621 C-0.62848323 308.28566188 -0.61344308 300.63347081 -0.60334396 292.98124123 C-0.58873203 281.91753127 -0.56318818 270.85386757 -0.53501268 259.79018482 C-0.48959032 241.83824421 -0.4529567 223.88629692 -0.421875 205.93432617 C-0.39167078 188.50006946 -0.35731191 171.06582907 -0.31738281 153.6315918 C-0.31492126 152.55617635 -0.31245972 151.48076091 -0.30992357 150.37275711 C-0.29754861 144.97748421 -0.28509215 139.5822115 -0.27259517 134.18693888 C-0.1690956 89.45797856 -0.08149351 44.72900689 0 0 Z " fill="#007bff" transform="translate(267,0)"/>
</svg>