<svg version="1.1" xmlns="http://www.w3.org/2000/svg" width="512px" height="512px" transform="rotate(0) scale(1, 1)">
<path d="M0 0 C1.08660919 0.00011959 2.17321838 0.00023918 3.29275513 0.0003624 C123.73365579 0.01707633 123.73365579 0.01707633 175.625 7.125 C176.69266602 7.27050293 177.76033203 7.41600586 178.86035156 7.56591797 C196.83640805 10.31735519 212.42262398 17.84310889 223.671875 32.3984375 C239.56031866 55.08713505 240.02920562 87.45271357 241.625 114.1875 C241.66736786 114.83154785 241.70973572 115.4755957 241.75338745 116.13916016 C242.85175924 133.01625812 242.8260737 149.90779576 242.8125 166.8125 C242.81223312 167.55653076 242.81196625 168.30056152 242.81169128 169.06713867 C242.80174312 191.15858981 242.73776462 213.17439807 240.625 235.1875 C240.5571228 235.90583008 240.48924561 236.62416016 240.41931152 237.36425781 C234.68528266 297.67631403 234.68528266 297.67631403 214.625 315.1875 C187.34190277 336.57955452 145.44392174 333.82764493 112.375 335.3125 C111.53166107 335.35102081 110.68832214 335.38954163 109.81942749 335.42922974 C74.812762 336.99529158 39.78700827 337.39373101 4.75 337.375 C3.25131378 337.37482061 3.25131378 337.37482061 1.72235107 337.3746376 C-186.811284 337.34624625 -186.811284 337.34624625 -214.34765625 310.24609375 C-249.92052874 271.54593577 -239.7333577 181.93767269 -237.68841553 132.87313843 C-233.84323705 45.13391923 -233.84323705 45.13391923 -210.828125 23.25390625 C-201.52957672 15.42121192 -191.0171959 10.20457819 -179.0625 8.125 C-178.13066895 7.9614502 -177.19883789 7.79790039 -176.23876953 7.62939453 C-153.90420788 3.97995635 -131.0747374 3.10414556 -108.5 2.0625 C-107.25751495 2.00458282 -107.25751495 2.00458282 -105.9899292 1.94549561 C-99.45310024 1.64754779 -92.91490477 1.40693433 -86.375 1.1875 C-85.08740784 1.14406464 -83.79981567 1.10062927 -82.47320557 1.05587769 C-54.98330831 0.1497347 -27.50310506 -0.01347071 0 0 Z M-45.375 98.1875 C-45.375 144.7175 -45.375 191.2475 -45.375 239.1875 C-41.52609578 237.64793831 -38.17546977 236.06296331 -34.578125 234.0625 C-33.4636499 233.44375 -32.3491748 232.825 -31.20092773 232.1875 C-30.00881662 231.52107513 -28.8168437 230.854403 -27.625 230.1875 C-27.0169754 229.84847656 -26.40895081 229.50945312 -25.78250122 229.16015625 C-17.40038903 224.48635674 -9.07872376 219.72274131 -0.828125 214.8203125 C17.40434313 204.00058234 35.88732833 193.59195271 54.30126953 183.08447266 C59.49373172 180.12094752 64.68433462 177.15417076 69.875 174.1875 C71.58853216 173.2083167 73.30207275 172.22914814 75.015625 171.25 C75.71719727 170.84910156 76.41876953 170.44820313 77.14160156 170.03515625 C77.87588379 169.61556641 77.87588379 169.61556641 78.625 169.1875 C75.69524778 166.8999904 72.68499635 164.98771208 69.4609375 163.140625 C68.43484375 162.55087891 67.40875 161.96113281 66.3515625 161.35351562 C65.24554688 160.72123047 64.13953125 160.08894531 63 159.4375 C61.83317378 158.76785607 60.66650991 158.09792916 59.5 157.42773438 C57.07712488 156.03601231 54.65355654 154.64550896 52.22949219 153.25585938 C46.68809957 150.0777896 41.15712092 146.88167137 35.625 143.6875 C33.45576703 142.43613229 31.28649608 141.1848304 29.1171875 139.93359375 C24.80898349 137.44819098 20.50177211 134.96108023 16.1953125 132.47265625 C3.58768569 125.18969317 -9.03706589 117.93791699 -21.68701172 110.72875977 C-22.77771973 110.10670654 -23.86842773 109.48465332 -24.9921875 108.84375 C-26.04631836 108.24304688 -27.10044922 107.64234375 -28.18652344 107.0234375 C-32.48976152 104.54561588 -36.75573034 102.00579969 -41.01611328 99.45507812 C-43.22230974 98.02971687 -43.22230974 98.02971687 -45.375 98.1875 Z " fill="#007bff" transform="translate(253.375,82.8125)"/>
</svg>